<?xml version="1.0" encoding="utf-8"?>
<!-- Generator: Adobe Illustrator 28.0.0, SVG Export Plug-In . SVG Version: 6.00 Build 0)  -->
<svg version="1.1" id="Layer_1" xmlns="http://www.w3.org/2000/svg" xmlns:xlink="http://www.w3.org/1999/xlink" x="0px" y="0px"
	 viewBox="0 0 32 32" style="enable-background:new 0 0 32 32;" xml:space="preserve">
<style type="text/css">
	.st0{fill:#4B7977;stroke:#4C7A78;stroke-width:0.4973;stroke-miterlimit:10;}
	.st1{fill:#C18631;stroke:#C18631;stroke-width:0.25;stroke-miterlimit:10;}
</style>
<g>
	<path class="st0" d="M27.6,19.6c-1.1-0.2-2.4-0.1-3.6,0.2l-0.3,0.1c-0.3-0.1-0.7-0.2-1-0.3c2.4-0.9,4.7-4.2,3.6-6
		c-0.5-0.8-1.1-1.1-1.8-1.3c-1.8-0.4-4,1-5.3,2.5c-0.5,0.6-0.9,1.1-1.3,1.8c-0.8-1.4-0.1-3.7,0.4-5c0.6-1.6,1.2-2.9,1.5-4.1
		c0.6-2-0.7-2.4-2.3-1.6c-1.7,0.8-3.5,3.1-4.7,5.2c0.7-2.5,1.6-5.3,1.9-7.9c0.2-1.8-0.3-2.7-1.1-2.9c-1.1-0.3-2.8,0.8-4.2,2.4
		C6.7,6,4.5,11.1,3.8,15.5c-0.4,2.6-0.5,4.8,0,5.4c0.5,0.7,1.2,0,0.7-0.3c-0.8-0.5-0.8-2.4-0.4-4.8c0.7-3.9,3-8.6,5.4-11.9
		c1.2-1.7,2.7-2.8,3.6-2.8c0.7,0,1.1,0.4,1,2.3c-0.2,2.3-1.1,5.1-1.9,7.5c-0.5,1.5-0.8,2.8-0.9,3.7c-0.1,1,0.6,0.7,0.7-0.1
		c0.1-1.1,0.7-2.2,1.2-3.2c1-2,2.6-4.1,4.1-4.9c1.2-0.7,1.6-0.1,1.5,1c-0.2,1.6-0.6,2.8-1.1,4.1c-0.6,1.6-1.3,4.2-0.5,5.8
		c0.3,0.8,0.9,0.7,1,0.3c0,0,0,0,0,0c0,0,0-0.1,0-0.1c0,0,0,0,0-0.1c0-0.8,0.3-1.6,1-2.3c1-1.3,3-2.3,4.5-2c4.1,0.6,0.9,6.2-2,6.4
		c-0.3-0.1-0.6-0.1-0.9-0.1h0c0,0,0,0,0,0c0,0,0,0,0,0c0,0-0.1,0-0.1,0.1c0,0,0,0,0,0.1c0,0,0,0.1,0,0.1l0,0c0,0,0,0,0,0
		c0,0,0.1,0.1,0.1,0.1c0,0,0,0,0,0c0.5,0.1,1.1,0.3,1.7,0.5c-1.2,0.5-2.5,1-3.6,1.8c0.6-2.5,2.1-5.2,3.8-6.6c1.3-1,0.4-1.9-0.4-1.2
		c-1.9,1.7-3.2,5.3-3.8,8.1c-0.5,0.3-0.9,0.6-1.3,0.9c-3.6,2.7-4.4,6.4-2.7,7.9c1.4,1.2,4.6,0.5,7.6-1.6c2.3-1.6,4.3-3.9,4.4-5.9
		c0.1-1.8-1-2.8-2.5-3.4c1.3-0.3,2.4-0.2,3.3,0.3C28,20.6,28.5,19.7,27.6,19.6z M26.2,23.5c-0.1,1.7-2,3.7-4.2,5.1
		c-2.8,1.8-5.8,2.7-7.1,1.8c-1.5-1-0.8-4.1,2.7-6.9c0.3-0.2,0.6-0.5,1-0.7l-0.1,0.6c-0.2,1.2-0.1,3.1,0.2,3.5
		c0.4,0.7,1.2,0.1,0.8-0.3c-0.5-0.3-0.7-2.2-0.6-3.3c0-0.3,0.1-0.5,0.1-0.8c1.2-0.8,2.7-1.6,4.2-2.2C24.8,20.9,26.3,21.9,26.2,23.5z
		"/>
	<path class="st1" d="M16.8,20.9c-0.1,0.2-0.2,0.2-0.4,0.2c-0.1,0-0.2,0-0.4-0.1c-0.1-0.1-0.3-0.3-0.5-0.5c0.1-0.1,0.2-0.3,0.3-0.5
		c0.1-0.3,0.2-0.5,0.3-0.6c0.1-0.1,0.2-0.2,0.4-0.2V19h-1.2v0.1c0.3,0,0.4,0.2,0.4,0.4c0,0.1,0,0.2-0.1,0.4
		c-0.1,0.2-0.1,0.3-0.3,0.5c-0.1-0.2-0.3-0.4-0.5-0.6c-0.2-0.2-0.3-0.4-0.5-0.7c0.5-0.3,0.8-0.5,0.8-0.8c0-0.2-0.1-0.3-0.2-0.4
		c-0.2-0.1-0.3-0.2-0.5-0.2c-0.2,0-0.4,0.1-0.6,0.2c-0.1,0.2-0.2,0.3-0.2,0.5c0,0.2,0.1,0.5,0.3,0.8c-0.4,0.2-0.6,0.4-0.7,0.6
		c-0.1,0.2-0.2,0.4-0.2,0.6c0,0.2,0,0.3,0.1,0.4c0.1,0.1,0.1,0.2,0.2,0.3c0.1,0.1,0.2,0.2,0.3,0.2c0.1,0.1,0.3,0.1,0.4,0.1
		c0.4,0,0.7-0.2,1-0.5c0.3,0.4,0.6,0.5,1,0.5c0.2,0,0.3,0,0.4-0.1c0.1-0.1,0.2-0.2,0.3-0.4H16.8z M14.2,17.8
		c0.1-0.1,0.2-0.1,0.3-0.1c0.1,0,0.1,0,0.2,0c0.1,0,0.1,0.1,0.1,0.1c0,0,0.1,0.1,0.1,0.2c0,0.1,0,0.1,0,0.2c0,0.3-0.2,0.5-0.6,0.7
		c-0.2-0.3-0.3-0.6-0.3-0.7C14.1,18,14.2,17.9,14.2,17.8z M14.5,21.1c-0.2,0-0.4-0.1-0.6-0.3c-0.2-0.2-0.3-0.4-0.3-0.7
		c0-0.1,0.1-0.3,0.2-0.5c0.1-0.2,0.3-0.3,0.5-0.4c0.1,0.2,0.3,0.4,0.5,0.6c0.2,0.2,0.4,0.5,0.5,0.8C15,21,14.7,21.1,14.5,21.1z"/>
</g>
</svg>
