<?xml version="1.0" encoding="utf-8"?>
<!-- Generator: Adobe Illustrator 28.0.0, SVG Export Plug-In . SVG Version: 6.00 Build 0)  -->
<svg version="1.1" id="Layer_1" xmlns="http://www.w3.org/2000/svg" xmlns:xlink="http://www.w3.org/1999/xlink" x="0px" y="0px"
	 viewBox="0 0 164.6 35" style="enable-background:new 0 0 164.6 35;" xml:space="preserve">
<style type="text/css">
	.st0{fill:#4B7977;}
	.st1{fill:#D6A35A;}
</style>
<g>
	<g>
		<g>
			<path class="st0" d="M24,18.8c0.8-2.2,1.5-4.1,1.8-6.8c0.2-1.8-0.5-2.8-2.4-1.6c-2.6,1.4-5.1,4.9-6.8,8.1c-0.8,1.6-1.8,3.4-2,5.3
				c-0.1,1.3-1.2,1.8-1.1,0.1c0.1-1.5,0.7-3.6,1.5-6.1c1.2-3.9,2.7-8.6,3.1-12.3c0.3-3.2-0.4-3.9-1.6-3.9c-1.6,0.1-3.9,1.9-6,4.7
				c-4,5.6-7.8,13.2-8.9,19.7c-0.7,4-0.7,7.1,0.6,7.9C3,34.4,1.8,35.5,1,34.4s-0.7-4.7-0.1-9c1.1-7.3,4.6-15.7,9.2-21
				c2.3-2.7,5.1-4.5,7-4c1.3,0.3,2.1,1.7,1.8,4.7c-0.4,4.2-2,8.9-3.1,13c1.9-3.5,4.9-7.2,7.7-8.6c2.6-1.3,4.8-0.6,3.8,2.7
				c-0.6,2.1-1.5,4.2-2.5,6.8c-0.9,2.2-2.2,6.7-0.2,8.8c1,1.2-0.6,2.4-1.4,0.5C21.8,25.8,23,21.5,24,18.8z"/>
			<path class="st0" d="M28.9,20.6c-0.6-0.3-0.7-1-0.6-1.8c0.3-2.9,3.2-5.1,6.2-4.7c0.9,0.1,1.7,0.5,2.1,1.4c0.4,0.8-0.6,1-1,0.1
				c-0.3-0.6-0.8-0.9-1.4-1c-1.4-0.1-3.1,1.5-3.8,3.1c-0.1,0.3-0.5,1.2-0.2,1.6s3.2-2.8,3.6-3.2c0.8-0.8,1.8-0.4,1.6,0.3
				c-0.8,2.4-0.3,3.4,0.7,3.6c1.7,0.4,4.9-1.6,6.2-3.1c0.5-0.7,1.3-0.3,0.6,0.4c-1.6,1.8-4.5,3.7-7.1,3.4c-2.1-0.2-2.8-2-1.8-3.9
				C33,17.5,30.8,21.6,28.9,20.6z"/>
			<path class="st0" d="M46,23c-0.8,0.1-1.8,0-2.3-0.8C42.8,21,43.5,19,44.3,18c-0.9,0.1-2.1-0.4-2.3-1.3c-0.1-0.5,0.1-1.1,0.8-1.6
				c0.5-0.3,1.1-0.1,1.2,0.3c0.1,0.4-0.7,0.6-0.6,0.8c0.1,0.5,1.4,0.8,1.9,1.1c1.6,1-0.6,2.9-0.6,4.1c0,0.8,0.9,0.9,1.6,0.7
				c2.3-0.6,5.2-4.2,6.2-5.3c0.5-0.6,1.3-0.3,0.6,0.4C51.9,18.8,48.8,22.5,46,23z"/>
			<path class="st0" d="M54.2,16.5c-0.8,2.4-0.3,3.4,0.7,3.6c1.7,0.4,4.9-1.6,6.2-3.1c0.5-0.7,1.3-0.3,0.6,0.4
				c-1.6,1.8-4.5,3.7-7.1,3.4c-2.1-0.2-2.8-2.8-1.9-4.7C53.5,15.4,54.5,15.7,54.2,16.5z M54.7,14.4c-0.4,0.7-1.6,0.5-1.3-0.4
				C53.7,12.7,55.8,12,54.7,14.4z"/>
			<path class="st0" d="M62.1,22.6c-0.3,0.3-0.5,0.6-0.8,0.6c-0.8,0-0.9-1-1-1.6c-0.2-1.8,0.8-5.4,1.7-6.6c0.8-0.9,1.8-0.4,1.6,0.3
				c-0.4,1.4-2.2,4.9-2.3,6.5c0,0.1,0,0.5,0.2,0.2s2.3-4.5,4-5.7c0.5-0.4,1-0.5,1.4,0c0.8,1.1-1.7,4.3,0.5,4.8
				c1.7,0.4,4.9-2.7,6.2-4.2c0.5-0.7,1.3-0.3,0.6,0.4c-1.6,1.8-4.5,4.8-7.1,4.5c-1.9-0.2-2.3-2.2-1.7-3.9c0.1-0.1,0.1-0.3,0.1-0.3
				C65.3,17.4,62.6,21.7,62.1,22.6z"/>
			<path class="st0" d="M73.6,20.6c-0.6-0.3-0.7-1-0.6-1.8c0.3-2.9,3.2-5.1,6.2-4.7c0.9,0.1,1.7,0.5,2.1,1.4c0.4,0.8-0.6,1-1,0.1
				c-0.3-0.6-0.8-0.9-1.4-1c-1.4-0.1-3.1,1.5-3.8,3.1c-0.1,0.3-0.5,1.2-0.2,1.6s3.2-2.8,3.6-3.2c0.8-0.8,1.8-0.4,1.6,0.3
				c-0.8,2.4-0.3,3.4,0.7,3.6c1.7,0.4,4.9-1.6,6.2-3.1c0.5-0.7,1.3-0.3,0.6,0.4c-1.6,1.8-4.5,3.7-7.1,3.4c-2.1-0.2-2.8-2-1.8-3.9
				C77.7,17.5,75.5,21.6,73.6,20.6z"/>
		</g>
	</g>
	<g>
		<g>
			<path class="st0" d="M108.3,0.2c1.1,0.3,2.2,0.9,2.9,2.1c1.8,3-2,8.5-5.9,9.9c0.5,0.1,1.1,0.2,1.6,0.4l0.4-0.1
				c2-0.5,4.1-0.7,5.9-0.4c1.4,0.3,0.6,1.8-0.2,1.2c-1.5-0.8-3.3-0.9-5.4-0.4c2.4,1,4.3,2.6,4.1,5.6c-0.3,3.4-3.5,7.1-7.3,9.8
				c-5,3.5-10.3,4.6-12.6,2.7c-2.7-2.4-1.5-8.5,4.5-13c0.7-0.5,1.4-1,2.1-1.5c0.9-4.5,3-10.5,6.2-13.3c1.3-1.1,2.8,0.3,0.7,2
				c-2.8,2.3-5.2,6.7-6.2,10.9c1.9-1.2,3.9-2.1,5.9-2.9c-1-0.3-2-0.6-2.8-0.8h-0.1c-0.1,0-0.2-0.1-0.2-0.1l0,0v-0.1
				c0-0.1,0-0.1,0-0.2c0-0.1,0-0.1,0.1-0.1c0.1-0.1,0.1-0.1,0.2-0.1c0,0,0,0,0.1,0l0,0h0.1c0.5,0.1,0.9,0.1,1.5,0.2
				c4.8-0.4,10.1-9.6,3.3-10.6c-2.5-0.4-5.8,1.2-7.4,3.4c-1,1.2-1.6,2.6-1.6,3.8c0.1,1-1.6,0.8-1.1-0.5c0.5-1.5,1.4-2.6,2.4-3.7
				C101.7,1.8,105.2-0.5,108.3,0.2z M99.7,23.9c0.8,0.6-0.6,1.6-1.3,0.4c-0.4-0.7-0.6-3.9-0.3-5.8l0.1-1c-0.6,0.4-1.1,0.8-1.6,1.2
				c-5.7,4.6-6.9,9.8-4.4,11.4c2.1,1.4,7.2-0.1,11.7-3c3.6-2.4,6.7-5.6,7-8.4c0.2-2.8-2.4-4.3-5.1-5.2c-2.5,0.9-4.9,2.3-7,3.6
				c-0.1,0.5-0.2,0.9-0.2,1.3C98.5,20.3,99,23.3,99.7,23.9z"/>
			<path class="st0" d="M118.8,14c0.6,0.1,0.9,0.5,1,0.9c0.1,0.9-1.4,1.7-3,1.7c-0.5,1-0.9,2.9,0.5,3.5c2.1,0.9,6.7-2.9,7.1-3.5
				c0.5-0.7,1.3-0.4,0.5,0.4c-1.6,1.9-5.7,4.5-8.6,3.8c-2.5-0.6-1.9-3.3-0.7-5C116.3,14.9,117.5,13.7,118.8,14z M117.1,15.9
				c0.7,0.1,1.5-0.8,1.3-1.3C118.3,14.4,117.9,14.5,117.1,15.9z"/>
			<path class="st0" d="M124.9,26.8c1.8,0.5,5.2-4.1,7.4-7.7c0.5-0.9,1-1.8,1.6-2.6c0.5-0.8,1.1-0.3,0.5,0.5
				c-0.6,0.9-1.2,1.9-1.8,2.9c-2.2,3.7-5.8,7.6-7.9,7.4c-2.8-0.3-1.9-5.4-0.8-9.2c1.6-5.8,4.1-12.2,6.2-14.4
				c1.2-1.2,2.9-1.1,2.4,1.2c-0.5,3.1-4.1,8-6.5,11.1C125.2,17.7,122.3,26.1,124.9,26.8z M126.7,13.8c1.3-1.9,2.8-4.2,3.8-6.3
				c1.5-2.8,0.7-2.8-0.9-0.3C128.6,9,127.6,11.4,126.7,13.8z"/>
			<path class="st0" d="M135.7,16c-0.8,2.4-0.3,3.4,0.7,3.6c1.7,0.4,4.9-1.6,6.2-3.1c0.5-0.7,1.3-0.3,0.6,0.4
				c-1.6,1.8-4.5,3.7-7.1,3.4c-2.1-0.2-2.8-2.8-1.9-4.7C135,14.9,136,15.3,135.7,16z M136.2,13.9c-0.4,0.7-1.6,0.5-1.3-0.4
				C135.2,12.2,137.3,11.5,136.2,13.9z"/>
			<path class="st0" d="M142.1,17.3c0.9-1.8,2.9-3.1,5.1-2.5c0.6,0.4-0.2,1-0.8,0.6c-2.1-1-3,2.8-3,4.4c0.1,0.6,0.4,0.8,0.9,0.3
				c0.6-0.6,1.1-2.1,1.2-2.6c-2.1-0.7,0-2.7,0.5-0.6c1.5,0.2,3.6,0.1,5-0.3c1.6-0.4,0.9,0.6,0.4,0.7c-1.5,0.4-3.6,0.5-5.3,0.3
				c0,1-0.5,2.5-1.4,3.3c-0.8,0.7-2.3,0.9-2.9-0.2C141.4,19.6,141.6,18.2,142.1,17.3z"/>
			<path class="st0" d="M152,22.1c-0.3,0.3-0.5,0.6-0.8,0.6c-0.8,0-0.9-1-1-1.6c-0.2-1.8,0.8-5.4,1.7-6.6c0.8-0.9,1.8-0.4,1.6,0.3
				c-0.4,1.4-2.2,4.9-2.3,6.5c0,0.1,0,0.5,0.2,0.2s2.3-4.5,4-5.7c0.5-0.4,1-0.5,1.4,0c0.8,1.1-1.7,4.3,0.5,4.8
				c1.7,0.4,4.9-2.7,6.2-4.2c0.5-0.7,1.3-0.3,0.6,0.4c-1.6,1.8-4.5,4.8-7.1,4.5c-1.9-0.2-2.3-2.2-1.7-3.9c0.1-0.1,0.1-0.3,0.1-0.3
				C155.1,16.9,152.5,21.2,152,22.1z"/>
		</g>
	</g>
	<g>
		<g>
			<path class="st1" d="M92.1,13.4h1.4v0.1c-0.2,0-0.3,0.1-0.4,0.2c-0.1,0.1-0.3,0.3-0.4,0.7c-0.1,0.3-0.2,0.5-0.3,0.6
				c0.2,0.3,0.4,0.5,0.5,0.6s0.3,0.1,0.4,0.1c0.2,0,0.4-0.1,0.5-0.3h0.1c0,0.2-0.1,0.3-0.3,0.4c-0.1,0.1-0.3,0.2-0.5,0.2
				c-0.4,0-0.8-0.2-1.1-0.6c-0.4,0.4-0.8,0.6-1.2,0.6c-0.1,0-0.3,0-0.4-0.1s-0.3-0.1-0.4-0.2c-0.1-0.1-0.2-0.2-0.3-0.4
				c-0.1-0.1-0.1-0.3-0.1-0.5c0-0.3,0.1-0.5,0.2-0.7s0.4-0.4,0.8-0.7c-0.2-0.3-0.4-0.7-0.4-0.9s0.1-0.4,0.3-0.6
				c0.2-0.2,0.4-0.3,0.6-0.3s0.4,0.1,0.6,0.2c0.2,0.1,0.3,0.3,0.3,0.5c0,0.3-0.3,0.6-0.9,0.9c0.2,0.3,0.4,0.5,0.5,0.7
				c0.2,0.2,0.3,0.5,0.5,0.7c0.1-0.2,0.2-0.3,0.3-0.5c0.1-0.2,0.1-0.3,0.1-0.4c0-0.2-0.2-0.4-0.5-0.4v0.1H92.1z M90.8,13.7
				c-0.2,0.1-0.4,0.3-0.5,0.5s-0.2,0.4-0.2,0.5c0,0.3,0.1,0.5,0.3,0.7c0.2,0.2,0.4,0.3,0.7,0.3c0.3,0,0.6-0.1,0.8-0.4
				c-0.2-0.3-0.4-0.6-0.6-0.9C91.1,14.1,90.9,13.9,90.8,13.7z M91.1,13.3c0.4-0.2,0.6-0.5,0.6-0.8c0-0.1,0-0.2,0-0.2
				c0-0.1-0.1-0.1-0.1-0.2c0-0.1-0.1-0.1-0.2-0.1s-0.1,0-0.2,0c-0.2,0-0.3,0.1-0.4,0.2c-0.1,0.1-0.1,0.2-0.1,0.4
				C90.7,12.7,90.8,12.9,91.1,13.3z"/>
		</g>
	</g>
</g>
</svg>
