<?xml version="1.0" encoding="UTF-8"?><svg id="Layer_1" xmlns="http://www.w3.org/2000/svg" viewBox="0 0 164.6 35"><defs><style>.cls-1{fill:#f8f0dd;}.cls-1,.cls-2{stroke-width:0px;}.cls-2{fill:#d6a35a;}</style></defs><path class="cls-1" d="m24.03,18.82c.84-2.2,1.49-4.13,1.77-6.78.19-1.78-.45-2.8-2.45-1.64-2.55,1.43-5.07,4.88-6.8,8.15-.82,1.56-1.82,3.41-1.96,5.26-.09,1.35-1.19,1.84-1.1.14.09-1.49.7-3.64,1.45-6.08,1.21-3.92,2.74-8.6,3.08-12.34.28-3.22-.42-3.92-1.59-3.86-1.56.09-3.93,1.85-6,4.7C6.43,11.94,2.67,19.61,1.5,26.08c-.7,3.97-.72,7.06.61,7.87.8.45-.38,1.61-1.22.52-.82-1.1-.72-4.74-.07-8.98,1.08-7.31,4.65-15.7,9.21-21.01C12.35,1.76,15.17.02,16.98.44c1.29.31,2.12,1.75,1.84,4.72-.37,4.16-1.96,8.91-3.08,12.97,1.92-3.46,4.89-7.2,7.69-8.6,2.64-1.29,4.77-.61,3.83,2.69-.56,2.1-1.5,4.23-2.5,6.83-.91,2.22-2.17,6.66-.23,8.79,1.03,1.17-.61,2.41-1.4.52-1.31-2.6-.14-6.83.89-9.54Z"/><path class="cls-1" d="m28.87,20.63c-.56-.28-.7-1.05-.61-1.77.33-2.87,3.23-5.14,6.15-4.72.89.12,1.71.52,2.12,1.36.37.79-.63.98-.96.14-.33-.61-.84-.91-1.4-.96-1.43-.14-3.11,1.5-3.76,3.09-.14.31-.49,1.24-.24,1.57.28.42,3.22-2.83,3.57-3.18.84-.79,1.8-.42,1.56.35-.79,2.38-.31,3.39.66,3.62,1.68.37,4.91-1.63,6.17-3.13.47-.66,1.28-.33.56.44-1.56,1.84-4.49,3.69-7.06,3.41-2.1-.19-2.81-2.01-1.84-3.92-.75.61-3.02,4.67-4.91,3.69Z"/><path class="cls-1" d="m46,23.02c-.84.14-1.77-.02-2.34-.77-.87-1.24-.12-3.23.65-4.23-.89.14-2.1-.38-2.29-1.26-.09-.47.1-1.14.79-1.56.51-.28,1.12-.07,1.17.35.09.4-.66.63-.61.77.09.45,1.38.82,1.85,1.1,1.59,1.03-.58,2.94-.58,4.12,0,.8.89.87,1.56.73,2.34-.56,5.23-4.21,6.2-5.28.54-.59,1.28-.31.56.44-1.03,1.31-4.16,5.09-6.96,5.58Z"/><path class="cls-1" d="m54.24,16.52c-.79,2.38-.31,3.39.66,3.62,1.68.37,4.91-1.63,6.17-3.13.47-.66,1.28-.33.56.44-1.56,1.84-4.49,3.69-7.06,3.41-2.11-.19-2.85-2.8-1.89-4.68.84-.79,1.8-.42,1.56.35Zm.45-2.15c-.42.7-1.56.52-1.28-.44.28-1.19,2.41-1.96,1.28.44Z"/><path class="cls-1" d="m62.12,22.62c-.26.33-.52.56-.82.56-.75,0-.94-1-1-1.63-.19-1.82.75-5.37,1.75-6.55.75-.87,1.8-.42,1.56.35-.42,1.42-2.18,4.95-2.27,6.52,0,.11-.02.49.21.21.21-.28,2.34-4.46,4-5.7.54-.4,1.03-.47,1.38.02.75,1.1-1.66,4.32.47,4.81,1.66.42,4.95-2.71,6.17-4.19.47-.66,1.28-.33.56.44-1.56,1.84-4.49,4.75-7.06,4.47-1.92-.19-2.31-2.24-1.75-3.93.05-.14.1-.3.05-.35-.12-.24-2.76,4.05-3.25,4.98Z"/><path class="cls-1" d="m73.57,20.63c-.56-.28-.7-1.05-.61-1.77.33-2.87,3.23-5.14,6.15-4.72.89.12,1.71.52,2.12,1.36.37.79-.63.98-.96.14-.33-.61-.84-.91-1.4-.96-1.43-.14-3.11,1.5-3.76,3.09-.14.31-.49,1.24-.24,1.57.28.42,3.22-2.83,3.57-3.18.84-.79,1.8-.42,1.56.35-.79,2.38-.31,3.39.66,3.62,1.68.37,4.91-1.63,6.17-3.13.47-.66,1.28-.33.56.44-1.56,1.84-4.49,3.69-7.06,3.41-2.1-.19-2.81-2.01-1.84-3.92-.75.61-3.02,4.67-4.91,3.69Z"/><path class="cls-1" d="m108.26.21c1.12.26,2.19.86,2.94,2.11,1.82,3.01-1.98,8.46-5.89,9.93.54.12,1.1.24,1.64.44l.44-.1c2.03-.47,4.13-.73,5.94-.37,1.42.28.59,1.77-.21,1.21-1.47-.84-3.32-.91-5.4-.44,2.39.98,4.3,2.64,4.07,5.65-.28,3.36-3.5,7.11-7.32,9.77-5.03,3.55-10.28,4.65-12.57,2.69-2.74-2.38-1.5-8.48,4.46-13,.68-.51,1.38-1.01,2.13-1.5.89-4.54,3.02-10.51,6.22-13.28,1.29-1.12,2.76.26.66,1.99-2.76,2.29-5.17,6.73-6.21,10.85,1.87-1.17,3.9-2.15,5.94-2.9-1.03-.33-2.01-.56-2.83-.77-.03,0-.05,0-.07-.02-.1-.03-.17-.09-.19-.14l-.03-.03-.03-.07c-.02-.05-.02-.1,0-.16,0-.05.03-.07.05-.12.07-.07.12-.1.17-.12.02-.02.03-.02.07-.02,0,0,.02,0,.03-.02h.07c.47.05.94.1,1.49.19,4.77-.37,10.14-9.56,3.34-10.59-2.53-.38-5.77,1.17-7.45,3.37-1.03,1.24-1.64,2.55-1.59,3.81.05.96-1.59.8-1.07-.51.54-1.45,1.43-2.59,2.41-3.72,2.17-2.48,5.75-4.82,8.77-4.12Zm-8.55,23.7c.77.58-.56,1.59-1.26.42-.42-.7-.56-3.92-.28-5.82l.14-.96c-.61.42-1.14.84-1.61,1.21-5.66,4.6-6.85,9.79-4.39,11.41,2.12,1.42,7.17-.05,11.73-2.99,3.64-2.38,6.75-5.61,6.97-8.41.19-2.76-2.38-4.3-5.1-5.24-2.46.89-4.95,2.25-6.96,3.58-.09.45-.16.89-.21,1.31-.23,1.89.21,4.93.96,5.49Z"/><path class="cls-1" d="m118.84,13.96c.63.14.94.49,1,.89.14.91-1.43,1.71-3.02,1.66-.45,1.05-.94,2.9.45,3.46,2.15.91,6.71-2.92,7.11-3.46.52-.66,1.26-.37.52.42-1.61,1.89-5.66,4.48-8.58,3.85-2.53-.61-1.94-3.25-.72-4.98.65-.93,1.91-2.11,3.23-1.84Zm-1.71,1.94c.7.09,1.45-.82,1.26-1.26-.12-.26-.51-.14-1.26,1.26Z"/><path class="cls-1" d="m124.91,26.81c1.77.49,5.23-4.07,7.39-7.71.54-.91,1.05-1.8,1.59-2.59.51-.84,1.14-.35.52.49-.58.89-1.15,1.87-1.77,2.87-2.19,3.67-5.84,7.6-7.9,7.38-2.8-.35-1.85-5.38-.8-9.18,1.56-5.84,4.07-12.24,6.15-14.39,1.15-1.15,2.87-1.07,2.45,1.21-.56,3.08-4.2,8.06-6.5,11.06-.84,1.73-3.76,10.17-1.14,10.85Zm1.83-13.06c1.31-1.89,2.83-4.25,3.85-6.28,1.45-2.85.68-2.81-.91-.3-1.12,1.8-2.12,4.21-2.94,6.57Z"/><path class="cls-1" d="m135.73,16.02c-.79,2.38-.31,3.39.66,3.62,1.68.37,4.91-1.63,6.17-3.13.47-.66,1.28-.33.56.44-1.56,1.84-4.49,3.69-7.06,3.41-2.12-.19-2.85-2.8-1.89-4.68.84-.79,1.8-.42,1.56.35Zm.45-2.15c-.42.7-1.56.52-1.28-.44.28-1.19,2.41-1.96,1.28.44Z"/><path class="cls-1" d="m142.09,17.27c.89-1.82,2.92-3.09,5.07-2.48.61.42-.17,1.03-.8.59-2.08-1.05-3.02,2.85-2.95,4.35.05.61.44.77.93.28.61-.61,1.1-2.06,1.15-2.6-2.13-.68-.04-2.71.45-.61,1.49.23,3.6.09,5.02-.28,1.63-.42.86.59.37.7-1.47.37-3.64.51-5.26.28,0,1-.49,2.5-1.36,3.29-.77.72-2.31.93-2.87-.21-.47-.94-.19-2.32.26-3.3Z"/><path class="cls-1" d="m152,22.12c-.26.33-.52.56-.82.56-.75,0-.94-1-1-1.63-.19-1.82.75-5.37,1.75-6.55.75-.87,1.8-.42,1.56.35-.42,1.42-2.19,4.95-2.27,6.52,0,.11-.02.49.21.21.21-.28,2.34-4.46,4-5.7.54-.4,1.03-.47,1.38.02.75,1.1-1.66,4.32.47,4.81,1.66.42,4.95-2.71,6.17-4.19.47-.66,1.28-.33.56.44-1.56,1.84-4.49,4.75-7.06,4.47-1.92-.19-2.31-2.24-1.75-3.93.05-.14.11-.3.05-.35-.12-.24-2.76,4.06-3.25,4.98Z"/><path class="cls-2" d="m92.14,13.39h1.35v.14c-.17.05-.32.13-.45.25-.12.11-.25.34-.39.67-.11.27-.22.47-.31.59.22.32.4.53.53.61.13.09.27.13.41.13.2,0,.35-.09.46-.28h.15c-.04.17-.14.31-.28.42-.14.11-.31.16-.5.16-.41,0-.77-.21-1.08-.62-.37.41-.76.62-1.17.62-.15,0-.3-.03-.44-.08-.14-.06-.27-.14-.39-.24-.11-.1-.2-.23-.27-.37-.07-.14-.1-.3-.1-.48,0-.26.07-.48.21-.67.14-.18.42-.41.83-.68-.25-.34-.37-.65-.37-.93,0-.22.08-.41.25-.58.17-.17.38-.26.63-.26.23,0,.43.06.62.19.18.13.27.3.27.5,0,.32-.3.64-.91.94.19.25.37.5.55.75s.35.48.51.72c.12-.17.21-.34.28-.52.07-.18.1-.32.1-.42,0-.24-.16-.38-.49-.42v-.14Zm-1.36.3c-.22.14-.39.29-.51.47-.12.18-.18.35-.18.52,0,.26.1.51.31.74.21.23.44.34.71.34.29,0,.56-.14.81-.43-.22-.34-.43-.64-.62-.92-.19-.27-.36-.51-.52-.72Zm.32-.38c.42-.25.63-.51.63-.8,0-.08-.01-.16-.04-.23-.02-.07-.06-.13-.1-.18-.05-.05-.1-.09-.16-.12-.06-.03-.13-.04-.21-.04-.15,0-.28.05-.37.15-.09.1-.14.22-.14.38,0,.21.13.49.38.84Z"/></svg>